<?xml version="1.0" encoding="utf-8"?>
<!-- Generated by Mocodo 4.2.11 -->
<svg width="1383" height="845" viewBox="0 0 1383 845" xmlns="http://www.w3.org/2000/svg">
<rect x="0" y="0" width="1383" height="845" fill="#f7f7f7" stroke="none" stroke-width="0"/>

<!-- Association HAS_ONE -->
<g>
	<line x1="162" y1="355" x2="268" y2="85" stroke="#e08214" stroke-width="2"/>
	<line x1="430" y1="85" x2="268" y2="85" stroke="#e08214" stroke-width="2"/>
	<g>
		<path d="M290 60 a14 14 90 0 1 14 14 V85 h-72 V74 a14 14 90 0 1 14 -14" fill="#fdb863" stroke="#fdb863" stroke-width="0"/>
		<path d="M304 85 v11 a14 14 90 0 1 -14 14 H246 a14 14 90 0 1 -14 -14 V85 H72" fill="#fee0b6" stroke="#fee0b6" stroke-width="0"/>
		<rect x="232" y="60" width="72" height="50" fill="none" rx="14" stroke="#e08214" stroke-width="2"/>
		<line x1="232" y1="85" x2="304" y2="85" stroke="#e08214" stroke-width="1"/>
		<text x="240" y="77.75" fill="#000000" font-family="Verdana" font-size="12">HAS ONE</text>
	</g>
	<text x="172.44" y="262" fill="#542788" font-family="Verdana" font-size="12">1,1</text>
	<text x="361" y="102" fill="#542788" font-family="Verdana" font-size="12">1,1</text>
</g>

<!-- Association ORGANIZES -->
<g>
	<line x1="162" y1="355" x2="268" y2="211" stroke="#e08214" stroke-width="2"/>
	<line x1="430" y1="355" x2="268" y2="211" stroke="#e08214" stroke-width="2"/>
	<g>
		<path d="M298 186 a14 14 90 0 1 14 14 V211 h-88 V200 a14 14 90 0 1 14 -14" fill="#fdb863" stroke="#fdb863" stroke-width="0"/>
		<path d="M312 211 v11 a14 14 90 0 1 -14 14 H238 a14 14 90 0 1 -14 -14 V211 H88" fill="#fee0b6" stroke="#fee0b6" stroke-width="0"/>
		<rect x="224" y="186" width="88" height="50" fill="none" rx="14" stroke="#e08214" stroke-width="2"/>
		<line x1="224" y1="211" x2="312" y2="211" stroke="#e08214" stroke-width="1"/>
		<text x="231" y="203.75" fill="#000000" font-family="Verdana" font-size="12">ORGANIZES</text>
	</g>
	<text x="205" y="314.81" fill="#542788" font-family="Verdana" font-size="12">1,1</text>
	<text x="360" y="327.29" fill="#542788" font-family="Verdana" font-size="12">0,N</text>
</g>

<!-- Association HAPPENS_AT -->
<g>
	<line x1="430" y1="355" x2="430" y2="211" stroke="#e08214" stroke-width="2"/>
	<line x1="430" y1="85" x2="430" y2="211" stroke="#e08214" stroke-width="2"/>
	<g>
		<path d="M462 186 a14 14 90 0 1 14 14 V211 h-92 V200 a14 14 90 0 1 14 -14" fill="#fdb863" stroke="#fdb863" stroke-width="0"/>
		<path d="M476 211 v11 a14 14 90 0 1 -14 14 H398 a14 14 90 0 1 -14 -14 V211 H92" fill="#fee0b6" stroke="#fee0b6" stroke-width="0"/>
		<rect x="384" y="186" width="92" height="50" fill="none" rx="14" stroke="#e08214" stroke-width="2"/>
		<line x1="384" y1="211" x2="476" y2="211" stroke="#e08214" stroke-width="1"/>
		<text x="392" y="203.75" fill="#000000" font-family="Verdana" font-size="12">HAPPENS AT</text>
	</g>
	<text x="435" y="254" fill="#542788" font-family="Verdana" font-size="12">1,1</text>
	<text x="435" y="144" fill="#542788" font-family="Verdana" font-size="12">1,1</text>
</g>

<!-- Association CAN_HAVE -->
<g>
	<line x1="1039" y1="355" x2="812" y2="211" stroke="#e08214" stroke-width="2"/>
	<line x1="812" y1="85" x2="812" y2="211" stroke="#e08214" stroke-width="2"/>
	<line x1="642" y1="355" x2="812" y2="211" stroke="#e08214" stroke-width="2"/>
	<g>
		<path d="M837 186 a14 14 90 0 1 14 14 V211 h-78 V200 a14 14 90 0 1 14 -14" fill="#fdb863" stroke="#fdb863" stroke-width="0"/>
		<path d="M851 211 v11 a14 14 90 0 1 -14 14 H787 a14 14 90 0 1 -14 -14 V211 H78" fill="#fee0b6" stroke="#fee0b6" stroke-width="0"/>
		<rect x="773" y="186" width="78" height="50" fill="none" rx="14" stroke="#e08214" stroke-width="2"/>
		<line x1="773" y1="211" x2="851" y2="211" stroke="#e08214" stroke-width="1"/>
		<text x="780" y="203.75" fill="#000000" font-family="Verdana" font-size="12">CAN HAVE</text>
	</g>
	<text x="960" y="334.13" fill="#542788" font-family="Verdana" font-size="12">0,N</text>
	<text x="817" y="178" fill="#542788" font-family="Verdana" font-size="12">0,N</text>
	<text x="690.9" y="288" fill="#542788" font-family="Verdana" font-size="12">0,N</text>
</g>

<!-- Association IS_CLASSIFIED_BY -->
<g>
	<line x1="1039" y1="355" x2="1039" y2="211" stroke="#e08214" stroke-width="2"/>
	<line x1="1039" y1="85" x2="1039" y2="211" stroke="#e08214" stroke-width="2"/>
	<g>
		<path d="M1088 186 a14 14 90 0 1 14 14 V211 h-126 V200 a14 14 90 0 1 14 -14" fill="#fdb863" stroke="#fdb863" stroke-width="0"/>
		<path d="M1102 211 v11 a14 14 90 0 1 -14 14 H990 a14 14 90 0 1 -14 -14 V211 H126" fill="#fee0b6" stroke="#fee0b6" stroke-width="0"/>
		<rect x="976" y="186" width="126" height="50" fill="none" rx="14" stroke="#e08214" stroke-width="2"/>
		<line x1="976" y1="211" x2="1102" y2="211" stroke="#e08214" stroke-width="1"/>
		<text x="983" y="203.75" fill="#000000" font-family="Verdana" font-size="12">IS CLASSIFIED BY</text>
	</g>
	<text x="1044" y="296" fill="#542788" font-family="Verdana" font-size="12">0,N</text>
	<text x="1044" y="136" fill="#542788" font-family="Verdana" font-size="12">1,N</text>
</g>

<!-- Association PREFERS -->
<g>
	<line x1="162" y1="355" x2="57" y2="355" stroke="#e08214" stroke-width="2"/>
	<line x1="57" y1="211" x2="57" y2="355" stroke="#e08214" stroke-width="2"/>
	<g>
		<path d="M78 330 a14 14 90 0 1 14 14 V355 h-70 V344 a14 14 90 0 1 14 -14" fill="#fdb863" stroke="#fdb863" stroke-width="0"/>
		<path d="M92 355 v11 a14 14 90 0 1 -14 14 H36 a14 14 90 0 1 -14 -14 V355 H70" fill="#fee0b6" stroke="#fee0b6" stroke-width="0"/>
		<rect x="22" y="330" width="70" height="50" fill="none" rx="14" stroke="#e08214" stroke-width="2"/>
		<line x1="22" y1="355" x2="92" y2="355" stroke="#e08214" stroke-width="1"/>
		<text x="30" y="347.75" fill="#000000" font-family="Verdana" font-size="12">PREFERS</text>
	</g>
	<text x="97" y="372" fill="#542788" font-family="Verdana" font-size="12">0,N</text>
	<text x="62" y="262" fill="#542788" font-family="Verdana" font-size="12">0,N</text>
</g>

<!-- Association RATES -->
<g>
	<path d="M162 355 C198 321.67 233.33 321.67 268 355" fill="none" stroke="#e08214" stroke-width="2"/>
	<path d="M162 355 C198 388.33 233.33 388.33 268 355" fill="none" stroke="#e08214" stroke-width="2"/>
	<line x1="430" y1="355" x2="268" y2="355" stroke="#e08214" stroke-width="2"/>
	<g>
		<path d="M290 321 a14 14 90 0 1 14 14 V346 h-72 V335 a14 14 90 0 1 14 -14" fill="#fdb863" stroke="#fdb863" stroke-width="0"/>
		<path d="M304 346 v29 a14 14 90 0 1 -14 14 H246 a14 14 90 0 1 -14 -14 V346 H72" fill="#fee0b6" stroke="#fee0b6" stroke-width="0"/>
		<rect x="232" y="321" width="72" height="68" fill="none" rx="14" stroke="#e08214" stroke-width="2"/>
		<line x1="232" y1="346" x2="304" y2="346" stroke="#e08214" stroke-width="1"/>
		<text x="248" y="338.75" fill="#000000" font-family="Verdana" font-size="12">RATES</text>
		<text x="239" y="363.8" fill="#000000" font-family="Verdana" font-size="12">note</text>
		<text x="239" y="380.8" fill="#000000" font-family="Verdana" font-size="12">comment</text>
	</g>
	<text x="205" y="349" fill="#542788" font-family="Verdana" font-size="12">1,1</text>
	<text x="205" y="370" fill="#542788" font-family="Verdana" font-size="12">1,1</text>
	<text x="361" y="372" fill="#542788" font-family="Verdana" font-size="12">1,1</text>
</g>

<!-- Association RUNS_ON -->
<g>
	<line x1="1039" y1="355" x2="812" y2="355" stroke="#e08214" stroke-width="2"/>
	<line x1="642" y1="355" x2="812" y2="355" stroke="#e08214" stroke-width="2"/>
	<g>
		<path d="M834 330 a14 14 90 0 1 14 14 V355 h-72 V344 a14 14 90 0 1 14 -14" fill="#fdb863" stroke="#fdb863" stroke-width="0"/>
		<path d="M848 355 v11 a14 14 90 0 1 -14 14 H790 a14 14 90 0 1 -14 -14 V355 H72" fill="#fee0b6" stroke="#fee0b6" stroke-width="0"/>
		<rect x="776" y="330" width="72" height="50" fill="none" rx="14" stroke="#e08214" stroke-width="2"/>
		<line x1="776" y1="355" x2="848" y2="355" stroke="#e08214" stroke-width="1"/>
		<text x="783" y="347.75" fill="#000000" font-family="Verdana" font-size="12">RUNS ON</text>
	</g>
	<text x="960" y="372" fill="#542788" font-family="Verdana" font-size="12">0,N</text>
	<text x="734" y="372" fill="#542788" font-family="Verdana" font-size="12">1,N</text>
</g>

<!-- Association HAS_MULTIPLE -->
<g>
	<line x1="1039" y1="355" x2="1207" y2="355" stroke="#e08214" stroke-width="2"/>
	<line x1="1207" y1="211" x2="1207" y2="355" stroke="#e08214" stroke-width="2"/>
	<g>
		<path d="M1245 330 a14 14 90 0 1 14 14 V355 h-104 V344 a14 14 90 0 1 14 -14" fill="#fdb863" stroke="#fdb863" stroke-width="0"/>
		<path d="M1259 355 v11 a14 14 90 0 1 -14 14 H1169 a14 14 90 0 1 -14 -14 V355 H104" fill="#fee0b6" stroke="#fee0b6" stroke-width="0"/>
		<rect x="1155" y="330" width="104" height="50" fill="none" rx="14" stroke="#e08214" stroke-width="2"/>
		<line x1="1155" y1="355" x2="1259" y2="355" stroke="#e08214" stroke-width="1"/>
		<text x="1162" y="347.75" fill="#000000" font-family="Verdana" font-size="12">HAS MULTIPLE</text>
	</g>
	<text x="1096" y="372" fill="#542788" font-family="Verdana" font-size="12">0,N</text>
	<text x="1212" y="262" fill="#542788" font-family="Verdana" font-size="12">1,N</text>
</g>

<!-- Association GOES_TO -->
<g>
	<line x1="430" y1="659" x2="268" y2="524" stroke="#e08214" stroke-width="2"/>
	<line x1="430" y1="355" x2="268" y2="524" stroke="#e08214" stroke-width="2"/>
	<g>
		<path d="M290 499 a14 14 90 0 1 14 14 V524 h-72 V513 a14 14 90 0 1 14 -14" fill="#fdb863" stroke="#fdb863" stroke-width="0"/>
		<path d="M304 524 v11 a14 14 90 0 1 -14 14 H246 a14 14 90 0 1 -14 -14 V524 H72" fill="#fee0b6" stroke="#fee0b6" stroke-width="0"/>
		<rect x="232" y="499" width="72" height="50" fill="none" rx="14" stroke="#e08214" stroke-width="2"/>
		<line x1="232" y1="524" x2="304" y2="524" stroke="#e08214" stroke-width="1"/>
		<text x="240" y="516.75" fill="#000000" font-family="Verdana" font-size="12">GOES TO</text>
	</g>
	<text x="352" y="627.33" fill="#542788" font-family="Verdana" font-size="12">0,N</text>
	<text x="361" y="398.72" fill="#542788" font-family="Verdana" font-size="12">1,1</text>
</g>

<!-- Association ORGANIZER_WISHES_FOR -->
<g>
	<line x1="430" y1="524" x2="642" y2="524" stroke="#e08214" stroke-width="2"/>
	<line x1="430" y1="355" x2="642" y2="524" stroke="#e08214" stroke-width="2"/>
	<line x1="812" y1="524" x2="642" y2="524" stroke="#e08214" stroke-width="2"/>
	<g>
		<path d="M714 499 a14 14 90 0 1 14 14 V524 h-172 V513 a14 14 90 0 1 14 -14" fill="#fdb863" stroke="#fdb863" stroke-width="0"/>
		<path d="M728 524 v11 a14 14 90 0 1 -14 14 H570 a14 14 90 0 1 -14 -14 V524 H172" fill="#fee0b6" stroke="#fee0b6" stroke-width="0"/>
		<rect x="556" y="499" width="172" height="50" fill="none" rx="14" stroke="#e08214" stroke-width="2"/>
		<line x1="556" y1="524" x2="728" y2="524" stroke="#e08214" stroke-width="1"/>
		<text x="563" y="516.75" fill="#000000" font-family="Verdana" font-size="12">ORGANIZER WISHES FOR</text>
	</g>
	<text x="529" y="541" fill="#542788" font-family="Verdana" font-size="12">0,N</text>
	<text x="478" y="387.23" fill="#542788" font-family="Verdana" font-size="12">1,1</text>
	<text x="733" y="516" fill="#542788" font-family="Verdana" font-size="12">0,N</text>
</g>

<!-- Association ARE -->
<g>
	<line x1="1039" y1="659" x2="1039" y2="524" stroke="#e08214" stroke-width="2"/>
	<line x1="1207" y1="524" x2="1039" y2="524" stroke="#e08214" stroke-width="2"/>
	<line x1="1039" y1="355" x2="1039" y2="524" stroke="#e08214" stroke-width="2"/>
	<line x1="812" y1="659" x2="1039" y2="524" stroke="#e08214" stroke-width="2"/>
	<line x1="812" y1="524" x2="1039" y2="524" stroke="#e08214" stroke-width="2"/>
	<g>
		<path d="M1045 499 a14 14 90 0 1 14 14 V524 h-40 V513 a14 14 90 0 1 14 -14" fill="#fdb863" stroke="#fdb863" stroke-width="0"/>
		<path d="M1059 524 v11 a14 14 90 0 1 -14 14 H1033 a14 14 90 0 1 -14 -14 V524 H40" fill="#fee0b6" stroke="#fee0b6" stroke-width="0"/>
		<rect x="1019" y="499" width="40" height="50" fill="none" rx="14" stroke="#e08214" stroke-width="2"/>
		<line x1="1019" y1="524" x2="1059" y2="524" stroke="#e08214" stroke-width="1"/>
		<text x="1027" y="516.75" fill="#000000" font-family="Verdana" font-size="12">ARE</text>
	</g>
	<text x="1044" y="609" fill="#542788" font-family="Verdana" font-size="12">0,N</text>
	<text x="1135" y="541" fill="#542788" font-family="Verdana" font-size="12">0,N</text>
	<text x="1044" y="423" fill="#542788" font-family="Verdana" font-size="12">0,N</text>
	<text x="870" y="639.87" fill="#542788" font-family="Verdana" font-size="12">0,N</text>
	<text x="869" y="541" fill="#542788" font-family="Verdana" font-size="12">0,N</text>
</g>

<!-- Association IS -->
<g>
	<path d="M162 355 C136.58 396.01 171.92 497.35 268 659" fill="none" stroke="#e08214" stroke-width="2"/>
	<line x1="430" y1="659" x2="268" y2="659" stroke="#e08214" stroke-width="2"/>
	<g>
		<path d="M268 634 a14 14 90 0 1 14 14 V659 h-28 V648 a14 14 90 0 1 14 -14" fill="#fdb863" stroke="#fdb863" stroke-width="0"/>
		<path d="M282 659 v11 a14 14 90 0 1 -14 14 H268 a14 14 90 0 1 -14 -14 V659 H28" fill="#fee0b6" stroke="#fee0b6" stroke-width="0"/>
		<rect x="254" y="634" width="28" height="50" fill="none" rx="14" stroke="#e08214" stroke-width="2"/>
		<line x1="254" y1="659" x2="282" y2="659" stroke="#e08214" stroke-width="1"/>
		<text x="261" y="651.75" fill="#000000" font-family="Verdana" font-size="12">IS</text>
	</g>
	<text x="173.28" y="457" fill="#542788" font-family="Verdana" font-size="12">1,1</text>
	<text x="352" y="676" fill="#542788" font-family="Verdana" font-size="12">0,N</text>
</g>

<!-- Association CAN_MAKE -->
<g>
	<line x1="430" y1="659" x2="642" y2="659" stroke="#e08214" stroke-width="2"/>
	<line x1="642" y1="777" x2="642" y2="659" stroke="#e08214" stroke-width="2"/>
	<line x1="812" y1="524" x2="642" y2="659" stroke="#e08214" stroke-width="2"/>
	<g>
		<path d="M668 634 a14 14 90 0 1 14 14 V659 h-80 V648 a14 14 90 0 1 14 -14" fill="#fdb863" stroke="#fdb863" stroke-width="0"/>
		<path d="M682 659 v11 a14 14 90 0 1 -14 14 H616 a14 14 90 0 1 -14 -14 V659 H80" fill="#fee0b6" stroke="#fee0b6" stroke-width="0"/>
		<rect x="602" y="634" width="80" height="50" fill="none" rx="14" stroke="#e08214" stroke-width="2"/>
		<line x1="602" y1="659" x2="682" y2="659" stroke="#e08214" stroke-width="1"/>
		<text x="610" y="651.75" fill="#000000" font-family="Verdana" font-size="12">CAN MAKE</text>
	</g>
	<text x="486" y="676" fill="#542788" font-family="Verdana" font-size="12">0,N</text>
	<text x="647" y="710" fill="#542788" font-family="Verdana" font-size="12">0,N</text>
	<text x="733" y="563.23" fill="#542788" font-family="Verdana" font-size="12">0,N</text>
</g>

<!-- Association CAN_CONTAIN -->
<g>
	<line x1="1332" y1="659" x2="1207" y2="659" stroke="#e08214" stroke-width="2"/>
	<line x1="1039" y1="659" x2="1207" y2="659" stroke="#e08214" stroke-width="2"/>
	<line x1="1207" y1="524" x2="1207" y2="659" stroke="#e08214" stroke-width="2"/>
	<g>
		<path d="M1244 634 a14 14 90 0 1 14 14 V659 h-102 V648 a14 14 90 0 1 14 -14" fill="#fdb863" stroke="#fdb863" stroke-width="0"/>
		<path d="M1258 659 v11 a14 14 90 0 1 -14 14 H1170 a14 14 90 0 1 -14 -14 V659 H102" fill="#fee0b6" stroke="#fee0b6" stroke-width="0"/>
		<rect x="1156" y="634" width="102" height="50" fill="none" rx="14" stroke="#e08214" stroke-width="2"/>
		<line x1="1156" y1="659" x2="1258" y2="659" stroke="#e08214" stroke-width="1"/>
		<text x="1164" y="651.75" fill="#000000" font-family="Verdana" font-size="12">CAN CONTAIN</text>
	</g>
	<text x="1263" y="676" fill="#542788" font-family="Verdana" font-size="12">0,N</text>
	<text x="1080" y="676" fill="#542788" font-family="Verdana" font-size="12">0,N</text>
	<text x="1212" y="592" fill="#542788" font-family="Verdana" font-size="12">0,N</text>
</g>

<!-- Association CAN_VOTE_ON -->
<g>
	<line x1="430" y1="659" x2="430" y2="777" stroke="#e08214" stroke-width="2"/>
	<line x1="642" y1="777" x2="430" y2="777" stroke="#e08214" stroke-width="2"/>
	<g>
		<path d="M466 752 a14 14 90 0 1 14 14 V777 h-100 V766 a14 14 90 0 1 14 -14" fill="#fdb863" stroke="#fdb863" stroke-width="0"/>
		<path d="M480 777 v11 a14 14 90 0 1 -14 14 H394 a14 14 90 0 1 -14 -14 V777 H100" fill="#fee0b6" stroke="#fee0b6" stroke-width="0"/>
		<rect x="380" y="752" width="100" height="50" fill="none" rx="14" stroke="#e08214" stroke-width="2"/>
		<line x1="380" y1="777" x2="480" y2="777" stroke="#e08214" stroke-width="1"/>
		<text x="387" y="769.75" fill="#000000" font-family="Verdana" font-size="12">CAN VOTE ON</text>
		<text x="387" y="794.8" fill="#000000" font-family="Verdana" font-size="12">type</text>
	</g>
	<text x="435" y="735" fill="#542788" font-family="Verdana" font-size="12">0,N</text>
	<text x="509" y="794" fill="#542788" font-family="Verdana" font-size="12">0,N</text>
</g>

<!-- Entity ADDRESSES -->
<g>
	<g>
		<rect x="387" y="43" width="86" height="25" fill="#b2abd2" stroke="none" stroke-width="0" opacity="1"/>
		<rect x="387" y="68" width="86" height="59" fill="#d8daeb" stroke="none" stroke-width="0" opacity="1"/>
		<rect x="387" y="43" width="86" height="84" fill="none" stroke="#8073ac" stroke-width="2" opacity="1"/>
		<line x1="387" y1="68" x2="473" y2="68" stroke="#8073ac" stroke-width="1"/>
	</g>
	<text x="392" y="60.75" fill="#000000" font-family="Verdana" font-size="12">ADDRESSES</text>
	<text x="392" y="85.8" fill="#000000" font-family="Verdana" font-size="12">address_id</text>
	<line x1="392" y1="88" x2="458" y2="88" stroke="#000000" stroke-width="1"/>
	<text x="392" y="102.8" fill="#000000" font-family="Verdana" font-size="12">city</text>
	<text x="392" y="119.8" fill="#000000" font-family="Verdana" font-size="12">details</text>
</g>

<!-- Entity VIDEO_GAME_MULTIPLAYER_MODES -->
<g>
	<g>
		<rect x="693" y="9" width="238" height="25" fill="#b2abd2" stroke="none" stroke-width="0" opacity="1"/>
		<rect x="693" y="34" width="238" height="127" fill="#d8daeb" stroke="none" stroke-width="0" opacity="1"/>
		<rect x="693" y="9" width="238" height="152" fill="none" stroke="#8073ac" stroke-width="2" opacity="1"/>
		<line x1="693" y1="34" x2="931" y2="34" stroke="#8073ac" stroke-width="1"/>
	</g>
	<text x="699" y="26.75" fill="#000000" font-family="Verdana" font-size="12">VIDEO_GAME_MULTIPLAYER_MODES</text>
	<text x="698" y="51.8" fill="#000000" font-family="Verdana" font-size="12">video_game_multiplayer_mode_id</text>
	<line x1="698" y1="54" x2="908" y2="54" stroke="#000000" stroke-width="1"/>
	<text x="698" y="68.8" fill="#000000" font-family="Verdana" font-size="12">video_game_id</text>
	<text x="698" y="85.8" fill="#000000" font-family="Verdana" font-size="12">platform_id</text>
	<text x="698" y="102.8" fill="#000000" font-family="Verdana" font-size="12">lancoop</text>
	<text x="698" y="119.8" fill="#000000" font-family="Verdana" font-size="12">offlinecoop</text>
	<text x="698" y="136.8" fill="#000000" font-family="Verdana" font-size="12">offlinecoopmax</text>
	<text x="698" y="153.8" fill="#000000" font-family="Verdana" font-size="12">offlinemax</text>
</g>

<!-- Entity VIDEO_GAME_GENRES -->
<g>
	<g>
		<rect x="963" y="51" width="152" height="25" fill="#b2abd2" stroke="none" stroke-width="0" opacity="1"/>
		<rect x="963" y="76" width="152" height="43" fill="#d8daeb" stroke="none" stroke-width="0" opacity="1"/>
		<rect x="963" y="51" width="152" height="68" fill="none" stroke="#8073ac" stroke-width="2" opacity="1"/>
		<line x1="963" y1="76" x2="1115" y2="76" stroke="#8073ac" stroke-width="1"/>
	</g>
	<text x="969" y="68.75" fill="#000000" font-family="Verdana" font-size="12">VIDEO_GAME_GENRES</text>
	<text x="968" y="93.8" fill="#000000" font-family="Verdana" font-size="12">video_game_genre_id</text>
	<line x1="968" y1="96" x2="1103" y2="96" stroke="#000000" stroke-width="1"/>
	<text x="968" y="110.8" fill="#000000" font-family="Verdana" font-size="12">name</text>
</g>

<!-- Entity PARTY_TYPES -->
<g>
	<g>
		<rect x="9" y="177" width="96" height="25" fill="#b2abd2" stroke="none" stroke-width="0" opacity="1"/>
		<rect x="9" y="202" width="96" height="43" fill="#d8daeb" stroke="none" stroke-width="0" opacity="1"/>
		<rect x="9" y="177" width="96" height="68" fill="none" stroke="#8073ac" stroke-width="2" opacity="1"/>
		<line x1="9" y1="202" x2="105" y2="202" stroke="#8073ac" stroke-width="1"/>
	</g>
	<text x="15" y="194.75" fill="#000000" font-family="Verdana" font-size="12">PARTY_TYPES</text>
	<text x="14" y="219.8" fill="#000000" font-family="Verdana" font-size="12">party_type_id</text>
	<line x1="14" y1="222" x2="99" y2="222" stroke="#000000" stroke-width="1"/>
	<text x="14" y="236.8" fill="#000000" font-family="Verdana" font-size="12">name</text>
</g>

<!-- Entity VIDEO_GAME_MODES -->
<g>
	<g>
		<rect x="1134" y="177" width="146" height="25" fill="#b2abd2" stroke="none" stroke-width="0" opacity="1"/>
		<rect x="1134" y="202" width="146" height="43" fill="#d8daeb" stroke="none" stroke-width="0" opacity="1"/>
		<rect x="1134" y="177" width="146" height="68" fill="none" stroke="#8073ac" stroke-width="2" opacity="1"/>
		<line x1="1134" y1="202" x2="1280" y2="202" stroke="#8073ac" stroke-width="1"/>
	</g>
	<text x="1139" y="194.75" fill="#000000" font-family="Verdana" font-size="12">VIDEO_GAME_MODES</text>
	<text x="1139" y="219.8" fill="#000000" font-family="Verdana" font-size="12">video_game_mode_id</text>
	<line x1="1139" y1="222" x2="1273" y2="222" stroke="#000000" stroke-width="1"/>
	<text x="1139" y="236.8" fill="#000000" font-family="Verdana" font-size="12">name</text>
</g>

<!-- Entity USERS -->
<g>
	<g>
		<rect x="124" y="270" width="76" height="25" fill="#b2abd2" stroke="none" stroke-width="0" opacity="1"/>
		<rect x="124" y="295" width="76" height="145" fill="#d8daeb" stroke="none" stroke-width="0" opacity="1"/>
		<rect x="124" y="270" width="76" height="170" fill="none" stroke="#8073ac" stroke-width="2" opacity="1"/>
		<line x1="124" y1="295" x2="200" y2="295" stroke="#8073ac" stroke-width="1"/>
	</g>
	<text x="141" y="287.75" fill="#000000" font-family="Verdana" font-size="12">USERS</text>
	<text x="129" y="312.8" fill="#000000" font-family="Verdana" font-size="12">user_id</text>
	<line x1="129" y1="315" x2="175" y2="315" stroke="#000000" stroke-width="1"/>
	<text x="129" y="329.8" fill="#000000" font-family="Verdana" font-size="12">first_name</text>
	<text x="129" y="346.8" fill="#000000" font-family="Verdana" font-size="12">last_name</text>
	<text x="129" y="363.8" fill="#000000" font-family="Verdana" font-size="12">email</text>
	<text x="129" y="380.8" fill="#000000" font-family="Verdana" font-size="12">password</text>
	<text x="129" y="397.8" fill="#000000" font-family="Verdana" font-size="12">address_id</text>
	<text x="129" y="414.8" fill="#000000" font-family="Verdana" font-size="12">age</text>
	<text x="129" y="431.8" fill="#000000" font-family="Verdana" font-size="12">note</text>
</g>

<!-- Entity PARTIES -->
<g>
	<g>
		<rect x="387" y="262" width="86" height="25" fill="#b2abd2" stroke="none" stroke-width="0" opacity="1"/>
		<rect x="387" y="287" width="86" height="161" fill="#d8daeb" stroke="none" stroke-width="0" opacity="1"/>
		<rect x="387" y="262" width="86" height="186" fill="none" stroke="#8073ac" stroke-width="2" opacity="1"/>
		<line x1="387" y1="287" x2="473" y2="287" stroke="#8073ac" stroke-width="1"/>
	</g>
	<text x="404" y="279.75" fill="#000000" font-family="Verdana" font-size="12">PARTIES</text>
	<text x="392" y="304.8" fill="#000000" font-family="Verdana" font-size="12">party_id</text>
	<line x1="392" y1="307" x2="443" y2="307" stroke="#000000" stroke-width="1"/>
	<text x="392" y="321.8" fill="#000000" font-family="Verdana" font-size="12">organizer_id</text>
	<text x="392" y="338.8" fill="#000000" font-family="Verdana" font-size="12">name</text>
	<text x="392" y="355.8" fill="#000000" font-family="Verdana" font-size="12">theme</text>
	<text x="392" y="372.8" fill="#000000" font-family="Verdana" font-size="12">address_id</text>
	<text x="392" y="389.8" fill="#000000" font-family="Verdana" font-size="12">start_date</text>
	<text x="392" y="406.8" fill="#000000" font-family="Verdana" font-size="12">end_date</text>
	<text x="392" y="423.8" fill="#000000" font-family="Verdana" font-size="12">fee</text>
	<text x="392" y="440.8" fill="#000000" font-family="Verdana" font-size="12">capacity</text>
</g>

<!-- Entity VIDEO_GAME_PLATFORMS -->
<g>
	<g>
		<rect x="555" y="296" width="174" height="25" fill="#b2abd2" stroke="none" stroke-width="0" opacity="1"/>
		<rect x="555" y="321" width="174" height="93" fill="#d8daeb" stroke="none" stroke-width="0" opacity="1"/>
		<rect x="555" y="296" width="174" height="118" fill="none" stroke="#8073ac" stroke-width="2" opacity="1"/>
		<line x1="555" y1="321" x2="729" y2="321" stroke="#8073ac" stroke-width="1"/>
	</g>
	<text x="560" y="313.75" fill="#000000" font-family="Verdana" font-size="12">VIDEO_GAME_PLATFORMS</text>
	<text x="560" y="338.8" fill="#000000" font-family="Verdana" font-size="12">platform_id</text>
	<line x1="560" y1="341" x2="630" y2="341" stroke="#000000" stroke-width="1"/>
	<text x="560" y="355.8" fill="#000000" font-family="Verdana" font-size="12">category</text>
	<text x="560" y="372.8" fill="#000000" font-family="Verdana" font-size="12">name</text>
	<text x="560" y="389.8" fill="#000000" font-family="Verdana" font-size="12">abbreviated_name</text>
	<text x="560" y="406.8" fill="#000000" font-family="Verdana" font-size="12">alternative_names</text>
</g>

<!-- Entity VIDEO_GAMES -->
<g>
	<g>
		<rect x="987" y="304" width="104" height="25" fill="#b2abd2" stroke="none" stroke-width="0" opacity="1"/>
		<rect x="987" y="329" width="104" height="77" fill="#d8daeb" stroke="none" stroke-width="0" opacity="1"/>
		<rect x="987" y="304" width="104" height="102" fill="none" stroke="#8073ac" stroke-width="2" opacity="1"/>
		<line x1="987" y1="329" x2="1091" y2="329" stroke="#8073ac" stroke-width="1"/>
	</g>
	<text x="993" y="321.75" fill="#000000" font-family="Verdana" font-size="12">VIDEO_GAMES</text>
	<text x="992" y="346.8" fill="#000000" font-family="Verdana" font-size="12">video_game_id</text>
	<line x1="992" y1="349" x2="1085" y2="349" stroke="#000000" stroke-width="1"/>
	<text x="992" y="363.8" fill="#000000" font-family="Verdana" font-size="12">name</text>
	<text x="992" y="380.8" fill="#000000" font-family="Verdana" font-size="12">release_date</text>
	<text x="992" y="397.8" fill="#000000" font-family="Verdana" font-size="12">description</text>
</g>

<!-- Entity PARTY_ORGANIZER_WISHES -->
<g>
	<g>
		<rect x="336" y="473" width="188" height="25" fill="#b2abd2" stroke="none" stroke-width="0" opacity="1"/>
		<rect x="336" y="498" width="188" height="77" fill="#d8daeb" stroke="none" stroke-width="0" opacity="1"/>
		<rect x="336" y="473" width="188" height="102" fill="none" stroke="#8073ac" stroke-width="2" opacity="1"/>
		<line x1="336" y1="498" x2="524" y2="498" stroke="#8073ac" stroke-width="1"/>
	</g>
	<text x="341" y="490.75" fill="#000000" font-family="Verdana" font-size="12">PARTY_ORGANIZER_WISHES</text>
	<text x="341" y="515.8" fill="#000000" font-family="Verdana" font-size="12">wish_id</text>
	<line x1="341" y1="518" x2="387" y2="518" stroke="#000000" stroke-width="1"/>
	<text x="341" y="532.8" fill="#000000" font-family="Verdana" font-size="12">party_id</text>
	<text x="341" y="549.8" fill="#000000" font-family="Verdana" font-size="12">item_id</text>
	<text x="341" y="566.8" fill="#000000" font-family="Verdana" font-size="12">item_type</text>
</g>

<!-- Entity ITEMS -->
<g>
	<g>
		<rect x="760" y="473" width="104" height="25" fill="#b2abd2" stroke="none" stroke-width="0" opacity="1"/>
		<rect x="760" y="498" width="104" height="77" fill="#d8daeb" stroke="none" stroke-width="0" opacity="1"/>
		<rect x="760" y="473" width="104" height="102" fill="none" stroke="#8073ac" stroke-width="2" opacity="1"/>
		<line x1="760" y1="498" x2="864" y2="498" stroke="#8073ac" stroke-width="1"/>
	</g>
	<text x="793" y="490.75" fill="#000000" font-family="Verdana" font-size="12">ITEMS</text>
	<text x="765" y="515.8" fill="#000000" font-family="Verdana" font-size="12">item_id</text>
	<line x1="765" y1="518" x2="811" y2="518" stroke="#000000" stroke-width="1"/>
	<text x="765" y="532.8" fill="#000000" font-family="Verdana" font-size="12">type</text>
	<text x="765" y="549.8" fill="#000000" font-family="Verdana" font-size="12">name</text>
	<text x="765" y="566.8" fill="#000000" font-family="Verdana" font-size="12">item_details_id</text>
</g>

<!-- Entity DRINKS -->
<g>
	<g>
		<rect x="1162" y="473" width="90" height="25" fill="#b2abd2" stroke="none" stroke-width="0" opacity="1"/>
		<rect x="1162" y="498" width="90" height="77" fill="#d8daeb" stroke="none" stroke-width="0" opacity="1"/>
		<rect x="1162" y="473" width="90" height="102" fill="none" stroke="#8073ac" stroke-width="2" opacity="1"/>
		<line x1="1162" y1="498" x2="1252" y2="498" stroke="#8073ac" stroke-width="1"/>
	</g>
	<text x="1183" y="490.75" fill="#000000" font-family="Verdana" font-size="12">DRINKS</text>
	<text x="1167" y="515.8" fill="#000000" font-family="Verdana" font-size="12">drink_id</text>
	<line x1="1167" y1="518" x2="1217" y2="518" stroke="#000000" stroke-width="1"/>
	<text x="1167" y="532.8" fill="#000000" font-family="Verdana" font-size="12">name</text>
	<text x="1167" y="549.8" fill="#000000" font-family="Verdana" font-size="12">alcohol_level</text>
	<text x="1167" y="566.8" fill="#000000" font-family="Verdana" font-size="12">image_url</text>
</g>

<!-- Entity PARTICIPANTS -->
<g>
	<g>
		<rect x="379" y="600" width="102" height="25" fill="#b2abd2" stroke="none" stroke-width="0" opacity="1"/>
		<rect x="379" y="625" width="102" height="93" fill="#d8daeb" stroke="none" stroke-width="0" opacity="1"/>
		<rect x="379" y="600" width="102" height="118" fill="none" stroke="#8073ac" stroke-width="2" opacity="1"/>
		<line x1="379" y1="625" x2="481" y2="625" stroke="#8073ac" stroke-width="1"/>
	</g>
	<text x="385" y="617.75" fill="#000000" font-family="Verdana" font-size="12">PARTICIPANTS</text>
	<text x="384" y="642.8" fill="#000000" font-family="Verdana" font-size="12">participant_id</text>
	<line x1="384" y1="645" x2="468" y2="645" stroke="#000000" stroke-width="1"/>
	<text x="384" y="659.8" fill="#000000" font-family="Verdana" font-size="12">user_id</text>
	<text x="384" y="676.8" fill="#000000" font-family="Verdana" font-size="12">party_id</text>
	<text x="384" y="693.8" fill="#000000" font-family="Verdana" font-size="12">is_accepted</text>
	<text x="384" y="710.8" fill="#000000" font-family="Verdana" font-size="12">has_paid</text>
</g>

<!-- Entity BOARD_GAMES -->
<g>
	<g>
		<rect x="759" y="625" width="106" height="25" fill="#b2abd2" stroke="none" stroke-width="0" opacity="1"/>
		<rect x="759" y="650" width="106" height="43" fill="#d8daeb" stroke="none" stroke-width="0" opacity="1"/>
		<rect x="759" y="625" width="106" height="68" fill="none" stroke="#8073ac" stroke-width="2" opacity="1"/>
		<line x1="759" y1="650" x2="865" y2="650" stroke="#8073ac" stroke-width="1"/>
	</g>
	<text x="764" y="642.75" fill="#000000" font-family="Verdana" font-size="12">BOARD_GAMES</text>
	<text x="764" y="667.8" fill="#000000" font-family="Verdana" font-size="12">board_game_id</text>
	<line x1="764" y1="670" x2="859" y2="670" stroke="#000000" stroke-width="1"/>
	<text x="764" y="684.8" fill="#000000" font-family="Verdana" font-size="12">name</text>
</g>

<!-- Entity FOODS -->
<g>
	<g>
		<rect x="1003" y="617" width="72" height="25" fill="#b2abd2" stroke="none" stroke-width="0" opacity="1"/>
		<rect x="1003" y="642" width="72" height="59" fill="#d8daeb" stroke="none" stroke-width="0" opacity="1"/>
		<rect x="1003" y="617" width="72" height="84" fill="none" stroke="#8073ac" stroke-width="2" opacity="1"/>
		<line x1="1003" y1="642" x2="1075" y2="642" stroke="#8073ac" stroke-width="1"/>
	</g>
	<text x="1017" y="634.75" fill="#000000" font-family="Verdana" font-size="12">FOODS</text>
	<text x="1008" y="659.8" fill="#000000" font-family="Verdana" font-size="12">food_id</text>
	<line x1="1008" y1="662" x2="1054" y2="662" stroke="#000000" stroke-width="1"/>
	<text x="1008" y="676.8" fill="#000000" font-family="Verdana" font-size="12">name</text>
	<text x="1008" y="693.8" fill="#000000" font-family="Verdana" font-size="12">image_url</text>
</g>

<!-- Entity ALLERGENS -->
<g>
	<g>
		<rect x="1290" y="625" width="84" height="25" fill="#b2abd2" stroke="none" stroke-width="0" opacity="1"/>
		<rect x="1290" y="650" width="84" height="43" fill="#d8daeb" stroke="none" stroke-width="0" opacity="1"/>
		<rect x="1290" y="625" width="84" height="68" fill="none" stroke="#8073ac" stroke-width="2" opacity="1"/>
		<line x1="1290" y1="650" x2="1374" y2="650" stroke="#8073ac" stroke-width="1"/>
	</g>
	<text x="1296" y="642.75" fill="#000000" font-family="Verdana" font-size="12">ALLERGENS</text>
	<text x="1295" y="667.8" fill="#000000" font-family="Verdana" font-size="12">allergen_id</text>
	<line x1="1295" y1="670" x2="1363" y2="670" stroke="#000000" stroke-width="1"/>
	<text x="1295" y="684.8" fill="#000000" font-family="Verdana" font-size="12">name</text>
</g>

<!-- Entity PARTICIPANTS_CONTRIBUTIONS -->
<g>
	<g>
		<rect x="536" y="718" width="212" height="25" fill="#b2abd2" stroke="none" stroke-width="0" opacity="1"/>
		<rect x="536" y="743" width="212" height="93" fill="#d8daeb" stroke="none" stroke-width="0" opacity="1"/>
		<rect x="536" y="718" width="212" height="118" fill="none" stroke="#8073ac" stroke-width="2" opacity="1"/>
		<line x1="536" y1="743" x2="748" y2="743" stroke="#8073ac" stroke-width="1"/>
	</g>
	<text x="541" y="735.75" fill="#000000" font-family="Verdana" font-size="12">PARTICIPANTS_CONTRIBUTIONS</text>
	<text x="541" y="760.8" fill="#000000" font-family="Verdana" font-size="12">contribution_id</text>
	<line x1="541" y1="763" x2="633" y2="763" stroke="#000000" stroke-width="1"/>
	<text x="541" y="777.8" fill="#000000" font-family="Verdana" font-size="12">party_id</text>
	<text x="541" y="794.8" fill="#000000" font-family="Verdana" font-size="12">user_id</text>
	<text x="541" y="811.8" fill="#000000" font-family="Verdana" font-size="12">item_id</text>
	<text x="541" y="828.8" fill="#000000" font-family="Verdana" font-size="12">item_type</text>
</g>
</svg>